<mxfile host="Electron" agent="Mozilla/5.0 (Windows NT 10.0; Win64; x64) AppleWebKit/537.36 (KHTML, like Gecko) draw.io/27.0.9 Chrome/134.0.6998.205 Electron/35.4.0 Safari/537.36" version="27.0.9">
  <diagram name="Page-1" id="ZlM580mFYve81EThSwJy">
    <mxGraphModel dx="1158" dy="704" grid="1" gridSize="10" guides="1" tooltips="1" connect="1" arrows="1" fold="1" page="1" pageScale="1" pageWidth="850" pageHeight="1100" math="0" shadow="0">
      <root>
        <mxCell id="0" />
        <mxCell id="1" parent="0" />
        <mxCell id="pV8ytbCQAY_xURVzbd8B-2" value="24S5P Module" style="swimlane;childLayout=stackLayout;resizeParent=1;resizeParentMax=0;horizontal=1;startSize=20;horizontalStack=0;html=1;" parent="1" vertex="1">
          <mxGeometry width="850" height="1100" as="geometry" />
        </mxCell>
        <mxCell id="pV8ytbCQAY_xURVzbd8B-3" value="Upper&amp;nbsp;&lt;span style=&quot;background-color: transparent; color: light-dark(rgb(0, 0, 0), rgb(255, 255, 255));&quot;&gt;BMS Link Aera&lt;/span&gt;" style="swimlane;startSize=20;horizontal=0;html=1;perimeterSpacing=1;" parent="pV8ytbCQAY_xURVzbd8B-2" vertex="1">
          <mxGeometry y="20" width="850" height="540" as="geometry" />
        </mxCell>
        <mxCell id="iPEDdxDTvJuRu2gTz-zR-174" value="" style="rounded=1;whiteSpace=wrap;html=1;fillColor=#e1d5e7;strokeColor=#9673a6;" vertex="1" parent="pV8ytbCQAY_xURVzbd8B-3">
          <mxGeometry x="20" y="31" width="250" height="157.5" as="geometry" />
        </mxCell>
        <mxCell id="iPEDdxDTvJuRu2gTz-zR-173" value="" style="rounded=1;whiteSpace=wrap;html=1;fillColor=#dae8fc;strokeColor=#6c8ebf;" vertex="1" parent="pV8ytbCQAY_xURVzbd8B-3">
          <mxGeometry x="20" y="190" width="250" height="151.5" as="geometry" />
        </mxCell>
        <mxCell id="iPEDdxDTvJuRu2gTz-zR-170" value="" style="rounded=1;whiteSpace=wrap;html=1;fillColor=#FFCCFF;strokeColor=#d6b656;" vertex="1" parent="pV8ytbCQAY_xURVzbd8B-3">
          <mxGeometry x="20" y="343" width="250" height="157.5" as="geometry" />
        </mxCell>
        <mxCell id="nshthl2HDihLxkNzMUow-227" value="BMS Link PCB" style="swimlane;whiteSpace=wrap;html=1;strokeWidth=2;" parent="pV8ytbCQAY_xURVzbd8B-3" vertex="1">
          <mxGeometry x="320" y="10" width="520" height="330" as="geometry" />
        </mxCell>
        <mxCell id="nshthl2HDihLxkNzMUow-228" value="&lt;a href=&quot;https://www.analog.com/media/en/technical-documentation/data-sheets/LTC6811-1-6811-2.pdf&quot;&gt;LTC6811&lt;/a&gt;&lt;br&gt;Battery Management IC" style="shape=process;whiteSpace=wrap;html=1;backgroundOutline=1;" parent="nshthl2HDihLxkNzMUow-227" vertex="1">
          <mxGeometry x="250" y="50" width="120" height="240" as="geometry" />
        </mxCell>
        <mxCell id="iPEDdxDTvJuRu2gTz-zR-1" style="edgeStyle=orthogonalEdgeStyle;rounded=0;orthogonalLoop=1;jettySize=auto;html=1;exitX=0;exitY=0.5;exitDx=0;exitDy=0;endArrow=blockThin;endFill=1;" edge="1" parent="nshthl2HDihLxkNzMUow-227" source="nshthl2HDihLxkNzMUow-230">
          <mxGeometry relative="1" as="geometry">
            <mxPoint x="370" y="80" as="targetPoint" />
          </mxGeometry>
        </mxCell>
        <mxCell id="nshthl2HDihLxkNzMUow-230" value="&lt;a href=&quot;https://www.analog.com/media/en/technical-documentation/data-sheets/3991fa.pdf&quot;&gt;LT3991&lt;/a&gt;&amp;nbsp;&lt;span style=&quot;background-color: transparent; color: light-dark(rgb(0, 0, 0), rgb(255, 255, 255));&quot;&gt;5V Regulator&lt;/span&gt;" style="shape=process;whiteSpace=wrap;html=1;backgroundOutline=1;" parent="nshthl2HDihLxkNzMUow-227" vertex="1">
          <mxGeometry x="420" y="50" width="90" height="60" as="geometry" />
        </mxCell>
        <mxCell id="nshthl2HDihLxkNzMUow-235" value="12S input" style="text;html=1;align=center;verticalAlign=middle;whiteSpace=wrap;rounded=0;fontSize=8;" parent="nshthl2HDihLxkNzMUow-227" vertex="1">
          <mxGeometry x="424" y="42" width="60" height="30" as="geometry" />
        </mxCell>
        <mxCell id="iPEDdxDTvJuRu2gTz-zR-29" value="Cell Balancing Electronics" style="swimlane;horizontal=0;whiteSpace=wrap;html=1;" vertex="1" parent="nshthl2HDihLxkNzMUow-227">
          <mxGeometry x="5" y="50" width="235" height="240" as="geometry" />
        </mxCell>
        <mxCell id="iPEDdxDTvJuRu2gTz-zR-47" style="edgeStyle=orthogonalEdgeStyle;rounded=0;orthogonalLoop=1;jettySize=auto;html=1;endArrow=blockThin;startFill=0;endFill=1;strokeColor=#00CC00;exitX=0;exitY=0.5;exitDx=0;exitDy=0;exitPerimeter=0;" edge="1" parent="iPEDdxDTvJuRu2gTz-zR-29" source="iPEDdxDTvJuRu2gTz-zR-39">
          <mxGeometry relative="1" as="geometry">
            <mxPoint x="65" y="30" as="targetPoint" />
            <mxPoint x="80" y="196.99999999999994" as="sourcePoint" />
            <Array as="points">
              <mxPoint x="65" y="190" />
              <mxPoint x="65" y="30" />
            </Array>
          </mxGeometry>
        </mxCell>
        <mxCell id="iPEDdxDTvJuRu2gTz-zR-49" value="Cell [i - 1]" style="edgeLabel;html=1;align=center;verticalAlign=middle;resizable=0;points=[];" vertex="1" connectable="0" parent="iPEDdxDTvJuRu2gTz-zR-47">
          <mxGeometry x="0.7295" y="2" relative="1" as="geometry">
            <mxPoint x="11" y="-2" as="offset" />
          </mxGeometry>
        </mxCell>
        <mxCell id="iPEDdxDTvJuRu2gTz-zR-39" value="10&amp;nbsp;&lt;span class=&quot;_97w2Z3njlMm7Og_zyqu4&quot;&gt;Î©&lt;/span&gt;" style="pointerEvents=1;verticalLabelPosition=bottom;shadow=0;dashed=0;align=center;html=1;verticalAlign=top;shape=mxgraph.electrical.resistors.resistor_2;rotation=0;" vertex="1" parent="iPEDdxDTvJuRu2gTz-zR-29">
          <mxGeometry x="80" y="183" width="55" height="14" as="geometry" />
        </mxCell>
        <mxCell id="iPEDdxDTvJuRu2gTz-zR-42" style="edgeStyle=orthogonalEdgeStyle;rounded=0;orthogonalLoop=1;jettySize=auto;html=1;exitX=0.7;exitY=0;exitDx=0;exitDy=0;exitPerimeter=0;endArrow=none;startFill=1;strokeColor=#00CC00;startArrow=blockThin;" edge="1" parent="iPEDdxDTvJuRu2gTz-zR-29" source="iPEDdxDTvJuRu2gTz-zR-41">
          <mxGeometry relative="1" as="geometry">
            <mxPoint x="149.33333333333337" y="20" as="targetPoint" />
          </mxGeometry>
        </mxCell>
        <mxCell id="iPEDdxDTvJuRu2gTz-zR-48" value="Cell [i]" style="edgeLabel;html=1;align=center;verticalAlign=middle;resizable=0;points=[];" vertex="1" connectable="0" parent="iPEDdxDTvJuRu2gTz-zR-42">
          <mxGeometry x="0.1904" relative="1" as="geometry">
            <mxPoint x="-1" y="5" as="offset" />
          </mxGeometry>
        </mxCell>
        <mxCell id="iPEDdxDTvJuRu2gTz-zR-41" value="" style="verticalLabelPosition=bottom;shadow=0;dashed=0;align=center;html=1;verticalAlign=top;shape=mxgraph.electrical.mosfets1.mosfet_ic_p;flipH=1;" vertex="1" parent="iPEDdxDTvJuRu2gTz-zR-29">
          <mxGeometry x="130" y="90" width="65" height="70" as="geometry" />
        </mxCell>
        <mxCell id="iPEDdxDTvJuRu2gTz-zR-46" style="edgeStyle=orthogonalEdgeStyle;rounded=0;orthogonalLoop=1;jettySize=auto;html=1;exitX=0.7;exitY=1;exitDx=0;exitDy=0;exitPerimeter=0;endArrow=none;startFill=0;entryX=1;entryY=0.5;entryDx=0;entryDy=0;entryPerimeter=0;" edge="1" parent="iPEDdxDTvJuRu2gTz-zR-29" source="iPEDdxDTvJuRu2gTz-zR-41" target="iPEDdxDTvJuRu2gTz-zR-39">
          <mxGeometry relative="1" as="geometry">
            <mxPoint x="115" y="190" as="targetPoint" />
            <Array as="points">
              <mxPoint x="150" y="190" />
            </Array>
          </mxGeometry>
        </mxCell>
        <mxCell id="iPEDdxDTvJuRu2gTz-zR-55" value="&lt;a href=&quot;https://www.digikey.ca/en/products/detail/umw/BSS308PE/24889415&quot;&gt;BSS308PE&lt;/a&gt;&lt;div&gt;MOSFET&lt;/div&gt;" style="text;html=1;align=center;verticalAlign=middle;whiteSpace=wrap;rounded=0;" vertex="1" parent="iPEDdxDTvJuRu2gTz-zR-29">
          <mxGeometry x="153" y="155" width="60" height="30" as="geometry" />
        </mxCell>
        <mxCell id="iPEDdxDTvJuRu2gTz-zR-44" style="edgeStyle=orthogonalEdgeStyle;rounded=0;orthogonalLoop=1;jettySize=auto;html=1;entryX=0;entryY=0.72;entryDx=0;entryDy=0;entryPerimeter=0;endArrow=blockThin;endFill=1;" edge="1" parent="nshthl2HDihLxkNzMUow-227" source="nshthl2HDihLxkNzMUow-228" target="iPEDdxDTvJuRu2gTz-zR-41">
          <mxGeometry relative="1" as="geometry">
            <Array as="points">
              <mxPoint x="225" y="190" />
            </Array>
          </mxGeometry>
        </mxCell>
        <mxCell id="iPEDdxDTvJuRu2gTz-zR-57" value="S[i]" style="edgeLabel;html=1;align=center;verticalAlign=middle;resizable=0;points=[];" vertex="1" connectable="0" parent="iPEDdxDTvJuRu2gTz-zR-44">
          <mxGeometry x="0.1927" y="-1" relative="1" as="geometry">
            <mxPoint as="offset" />
          </mxGeometry>
        </mxCell>
        <mxCell id="pV8ytbCQAY_xURVzbd8B-9" value="&lt;a href=&quot;https://www.molicel.com/inr-18650-p30b/&quot;&gt;Molicell P30B 18650&lt;/a&gt; Array" style="swimlane;whiteSpace=wrap;html=1;strokeWidth=2;" parent="pV8ytbCQAY_xURVzbd8B-3" vertex="1">
          <mxGeometry x="30" y="10" width="200" height="490" as="geometry" />
        </mxCell>
        <mxCell id="nshthl2HDihLxkNzMUow-79" value="" style="strokeWidth=1;html=1;shape=mxgraph.flowchart.direct_data;whiteSpace=wrap;rotation=-90;" parent="pV8ytbCQAY_xURVzbd8B-9" vertex="1">
          <mxGeometry x="2.5" y="28" width="35" height="38" as="geometry" />
        </mxCell>
        <mxCell id="nshthl2HDihLxkNzMUow-130" value="" style="strokeWidth=1;html=1;shape=mxgraph.flowchart.direct_data;whiteSpace=wrap;rotation=-90;" parent="pV8ytbCQAY_xURVzbd8B-9" vertex="1">
          <mxGeometry x="42.5" y="28" width="35" height="38" as="geometry" />
        </mxCell>
        <mxCell id="nshthl2HDihLxkNzMUow-131" value="" style="strokeWidth=1;html=1;shape=mxgraph.flowchart.direct_data;whiteSpace=wrap;rotation=-90;" parent="pV8ytbCQAY_xURVzbd8B-9" vertex="1">
          <mxGeometry x="82.5" y="28" width="35" height="38" as="geometry" />
        </mxCell>
        <mxCell id="nshthl2HDihLxkNzMUow-132" value="" style="strokeWidth=1;html=1;shape=mxgraph.flowchart.direct_data;whiteSpace=wrap;rotation=-90;" parent="pV8ytbCQAY_xURVzbd8B-9" vertex="1">
          <mxGeometry x="122.5" y="28" width="35" height="38" as="geometry" />
        </mxCell>
        <mxCell id="nshthl2HDihLxkNzMUow-133" value="" style="strokeWidth=1;html=1;shape=mxgraph.flowchart.direct_data;whiteSpace=wrap;rotation=-90;" parent="pV8ytbCQAY_xURVzbd8B-9" vertex="1">
          <mxGeometry x="162.5" y="28" width="35" height="38" as="geometry" />
        </mxCell>
        <mxCell id="nshthl2HDihLxkNzMUow-139" value="" style="strokeWidth=1;html=1;shape=mxgraph.flowchart.direct_data;whiteSpace=wrap;rotation=-90;" parent="pV8ytbCQAY_xURVzbd8B-9" vertex="1">
          <mxGeometry x="2.5" y="66" width="35" height="38" as="geometry" />
        </mxCell>
        <mxCell id="nshthl2HDihLxkNzMUow-140" value="" style="strokeWidth=1;html=1;shape=mxgraph.flowchart.direct_data;whiteSpace=wrap;rotation=-90;" parent="pV8ytbCQAY_xURVzbd8B-9" vertex="1">
          <mxGeometry x="42.5" y="66" width="35" height="38" as="geometry" />
        </mxCell>
        <mxCell id="nshthl2HDihLxkNzMUow-141" value="" style="strokeWidth=1;html=1;shape=mxgraph.flowchart.direct_data;whiteSpace=wrap;rotation=-90;" parent="pV8ytbCQAY_xURVzbd8B-9" vertex="1">
          <mxGeometry x="82.5" y="66" width="35" height="38" as="geometry" />
        </mxCell>
        <mxCell id="nshthl2HDihLxkNzMUow-142" value="" style="strokeWidth=1;html=1;shape=mxgraph.flowchart.direct_data;whiteSpace=wrap;rotation=-90;" parent="pV8ytbCQAY_xURVzbd8B-9" vertex="1">
          <mxGeometry x="122.5" y="66" width="35" height="38" as="geometry" />
        </mxCell>
        <mxCell id="nshthl2HDihLxkNzMUow-143" value="" style="strokeWidth=1;html=1;shape=mxgraph.flowchart.direct_data;whiteSpace=wrap;rotation=-90;" parent="pV8ytbCQAY_xURVzbd8B-9" vertex="1">
          <mxGeometry x="162.5" y="66" width="35" height="38" as="geometry" />
        </mxCell>
        <mxCell id="nshthl2HDihLxkNzMUow-144" value="" style="strokeWidth=1;html=1;shape=mxgraph.flowchart.direct_data;whiteSpace=wrap;rotation=-90;" parent="pV8ytbCQAY_xURVzbd8B-9" vertex="1">
          <mxGeometry x="2.5" y="104" width="35" height="38" as="geometry" />
        </mxCell>
        <mxCell id="nshthl2HDihLxkNzMUow-145" value="" style="strokeWidth=1;html=1;shape=mxgraph.flowchart.direct_data;whiteSpace=wrap;rotation=-90;" parent="pV8ytbCQAY_xURVzbd8B-9" vertex="1">
          <mxGeometry x="42.5" y="104" width="35" height="38" as="geometry" />
        </mxCell>
        <mxCell id="nshthl2HDihLxkNzMUow-146" value="" style="strokeWidth=1;html=1;shape=mxgraph.flowchart.direct_data;whiteSpace=wrap;rotation=-90;" parent="pV8ytbCQAY_xURVzbd8B-9" vertex="1">
          <mxGeometry x="82.5" y="104" width="35" height="38" as="geometry" />
        </mxCell>
        <mxCell id="nshthl2HDihLxkNzMUow-147" value="" style="strokeWidth=1;html=1;shape=mxgraph.flowchart.direct_data;whiteSpace=wrap;rotation=-90;" parent="pV8ytbCQAY_xURVzbd8B-9" vertex="1">
          <mxGeometry x="122.5" y="104" width="35" height="38" as="geometry" />
        </mxCell>
        <mxCell id="nshthl2HDihLxkNzMUow-148" value="" style="strokeWidth=1;html=1;shape=mxgraph.flowchart.direct_data;whiteSpace=wrap;rotation=-90;" parent="pV8ytbCQAY_xURVzbd8B-9" vertex="1">
          <mxGeometry x="162.5" y="104" width="35" height="38" as="geometry" />
        </mxCell>
        <mxCell id="nshthl2HDihLxkNzMUow-149" value="" style="strokeWidth=1;html=1;shape=mxgraph.flowchart.direct_data;whiteSpace=wrap;rotation=-90;" parent="pV8ytbCQAY_xURVzbd8B-9" vertex="1">
          <mxGeometry x="2.5" y="142" width="35" height="38" as="geometry" />
        </mxCell>
        <mxCell id="nshthl2HDihLxkNzMUow-150" value="" style="strokeWidth=1;html=1;shape=mxgraph.flowchart.direct_data;whiteSpace=wrap;rotation=-90;" parent="pV8ytbCQAY_xURVzbd8B-9" vertex="1">
          <mxGeometry x="42.5" y="142" width="35" height="38" as="geometry" />
        </mxCell>
        <mxCell id="nshthl2HDihLxkNzMUow-151" value="" style="strokeWidth=1;html=1;shape=mxgraph.flowchart.direct_data;whiteSpace=wrap;rotation=-90;" parent="pV8ytbCQAY_xURVzbd8B-9" vertex="1">
          <mxGeometry x="82.5" y="142" width="35" height="38" as="geometry" />
        </mxCell>
        <mxCell id="nshthl2HDihLxkNzMUow-152" value="" style="strokeWidth=1;html=1;shape=mxgraph.flowchart.direct_data;whiteSpace=wrap;rotation=-90;" parent="pV8ytbCQAY_xURVzbd8B-9" vertex="1">
          <mxGeometry x="122.5" y="142" width="35" height="38" as="geometry" />
        </mxCell>
        <mxCell id="nshthl2HDihLxkNzMUow-153" value="" style="strokeWidth=1;html=1;shape=mxgraph.flowchart.direct_data;whiteSpace=wrap;rotation=-90;" parent="pV8ytbCQAY_xURVzbd8B-9" vertex="1">
          <mxGeometry x="162.5" y="142" width="35" height="38" as="geometry" />
        </mxCell>
        <mxCell id="nshthl2HDihLxkNzMUow-154" value="" style="strokeWidth=1;html=1;shape=mxgraph.flowchart.direct_data;whiteSpace=wrap;rotation=-90;" parent="pV8ytbCQAY_xURVzbd8B-9" vertex="1">
          <mxGeometry x="2.5" y="180" width="35" height="38" as="geometry" />
        </mxCell>
        <mxCell id="nshthl2HDihLxkNzMUow-155" value="" style="strokeWidth=1;html=1;shape=mxgraph.flowchart.direct_data;whiteSpace=wrap;rotation=-90;" parent="pV8ytbCQAY_xURVzbd8B-9" vertex="1">
          <mxGeometry x="42.5" y="180" width="35" height="38" as="geometry" />
        </mxCell>
        <mxCell id="nshthl2HDihLxkNzMUow-156" value="" style="strokeWidth=1;html=1;shape=mxgraph.flowchart.direct_data;whiteSpace=wrap;rotation=-90;" parent="pV8ytbCQAY_xURVzbd8B-9" vertex="1">
          <mxGeometry x="82.5" y="180" width="35" height="38" as="geometry" />
        </mxCell>
        <mxCell id="nshthl2HDihLxkNzMUow-157" value="" style="strokeWidth=1;html=1;shape=mxgraph.flowchart.direct_data;whiteSpace=wrap;rotation=-90;" parent="pV8ytbCQAY_xURVzbd8B-9" vertex="1">
          <mxGeometry x="122.5" y="180" width="35" height="38" as="geometry" />
        </mxCell>
        <mxCell id="nshthl2HDihLxkNzMUow-158" value="" style="strokeWidth=1;html=1;shape=mxgraph.flowchart.direct_data;whiteSpace=wrap;rotation=-90;" parent="pV8ytbCQAY_xURVzbd8B-9" vertex="1">
          <mxGeometry x="162.5" y="180" width="35" height="38" as="geometry" />
        </mxCell>
        <mxCell id="nshthl2HDihLxkNzMUow-159" value="" style="strokeWidth=1;html=1;shape=mxgraph.flowchart.direct_data;whiteSpace=wrap;rotation=-90;" parent="pV8ytbCQAY_xURVzbd8B-9" vertex="1">
          <mxGeometry x="2.5" y="218" width="35" height="38" as="geometry" />
        </mxCell>
        <mxCell id="nshthl2HDihLxkNzMUow-160" value="" style="strokeWidth=1;html=1;shape=mxgraph.flowchart.direct_data;whiteSpace=wrap;rotation=-90;" parent="pV8ytbCQAY_xURVzbd8B-9" vertex="1">
          <mxGeometry x="42.5" y="218" width="35" height="38" as="geometry" />
        </mxCell>
        <mxCell id="nshthl2HDihLxkNzMUow-161" value="" style="strokeWidth=1;html=1;shape=mxgraph.flowchart.direct_data;whiteSpace=wrap;rotation=-90;" parent="pV8ytbCQAY_xURVzbd8B-9" vertex="1">
          <mxGeometry x="82.5" y="218" width="35" height="38" as="geometry" />
        </mxCell>
        <mxCell id="nshthl2HDihLxkNzMUow-162" value="" style="strokeWidth=1;html=1;shape=mxgraph.flowchart.direct_data;whiteSpace=wrap;rotation=-90;" parent="pV8ytbCQAY_xURVzbd8B-9" vertex="1">
          <mxGeometry x="122.5" y="218" width="35" height="38" as="geometry" />
        </mxCell>
        <mxCell id="nshthl2HDihLxkNzMUow-163" value="" style="strokeWidth=1;html=1;shape=mxgraph.flowchart.direct_data;whiteSpace=wrap;rotation=-90;" parent="pV8ytbCQAY_xURVzbd8B-9" vertex="1">
          <mxGeometry x="162.5" y="218" width="35" height="38" as="geometry" />
        </mxCell>
        <mxCell id="nshthl2HDihLxkNzMUow-164" value="" style="strokeWidth=1;html=1;shape=mxgraph.flowchart.direct_data;whiteSpace=wrap;rotation=-90;" parent="pV8ytbCQAY_xURVzbd8B-9" vertex="1">
          <mxGeometry x="2.5" y="256" width="35" height="38" as="geometry" />
        </mxCell>
        <mxCell id="nshthl2HDihLxkNzMUow-165" value="" style="strokeWidth=1;html=1;shape=mxgraph.flowchart.direct_data;whiteSpace=wrap;rotation=-90;" parent="pV8ytbCQAY_xURVzbd8B-9" vertex="1">
          <mxGeometry x="42.5" y="256" width="35" height="38" as="geometry" />
        </mxCell>
        <mxCell id="nshthl2HDihLxkNzMUow-166" value="" style="strokeWidth=1;html=1;shape=mxgraph.flowchart.direct_data;whiteSpace=wrap;rotation=-90;" parent="pV8ytbCQAY_xURVzbd8B-9" vertex="1">
          <mxGeometry x="82.5" y="256" width="35" height="38" as="geometry" />
        </mxCell>
        <mxCell id="nshthl2HDihLxkNzMUow-167" value="" style="strokeWidth=1;html=1;shape=mxgraph.flowchart.direct_data;whiteSpace=wrap;rotation=-90;" parent="pV8ytbCQAY_xURVzbd8B-9" vertex="1">
          <mxGeometry x="122.5" y="256" width="35" height="38" as="geometry" />
        </mxCell>
        <mxCell id="nshthl2HDihLxkNzMUow-168" value="" style="strokeWidth=1;html=1;shape=mxgraph.flowchart.direct_data;whiteSpace=wrap;rotation=-90;" parent="pV8ytbCQAY_xURVzbd8B-9" vertex="1">
          <mxGeometry x="162.5" y="256" width="35" height="38" as="geometry" />
        </mxCell>
        <mxCell id="nshthl2HDihLxkNzMUow-169" value="" style="strokeWidth=1;html=1;shape=mxgraph.flowchart.direct_data;whiteSpace=wrap;rotation=-90;" parent="pV8ytbCQAY_xURVzbd8B-9" vertex="1">
          <mxGeometry x="2.5" y="294" width="35" height="38" as="geometry" />
        </mxCell>
        <mxCell id="nshthl2HDihLxkNzMUow-170" value="" style="strokeWidth=1;html=1;shape=mxgraph.flowchart.direct_data;whiteSpace=wrap;rotation=-90;" parent="pV8ytbCQAY_xURVzbd8B-9" vertex="1">
          <mxGeometry x="42.5" y="294" width="35" height="38" as="geometry" />
        </mxCell>
        <mxCell id="nshthl2HDihLxkNzMUow-171" value="" style="strokeWidth=1;html=1;shape=mxgraph.flowchart.direct_data;whiteSpace=wrap;rotation=-90;" parent="pV8ytbCQAY_xURVzbd8B-9" vertex="1">
          <mxGeometry x="82.5" y="294" width="35" height="38" as="geometry" />
        </mxCell>
        <mxCell id="nshthl2HDihLxkNzMUow-172" value="" style="strokeWidth=1;html=1;shape=mxgraph.flowchart.direct_data;whiteSpace=wrap;rotation=-90;" parent="pV8ytbCQAY_xURVzbd8B-9" vertex="1">
          <mxGeometry x="122.5" y="294" width="35" height="38" as="geometry" />
        </mxCell>
        <mxCell id="nshthl2HDihLxkNzMUow-173" value="" style="strokeWidth=1;html=1;shape=mxgraph.flowchart.direct_data;whiteSpace=wrap;rotation=-90;" parent="pV8ytbCQAY_xURVzbd8B-9" vertex="1">
          <mxGeometry x="162.5" y="294" width="35" height="38" as="geometry" />
        </mxCell>
        <mxCell id="nshthl2HDihLxkNzMUow-174" value="" style="strokeWidth=1;html=1;shape=mxgraph.flowchart.direct_data;whiteSpace=wrap;rotation=-90;" parent="pV8ytbCQAY_xURVzbd8B-9" vertex="1">
          <mxGeometry x="2.5" y="332" width="35" height="38" as="geometry" />
        </mxCell>
        <mxCell id="nshthl2HDihLxkNzMUow-175" value="" style="strokeWidth=1;html=1;shape=mxgraph.flowchart.direct_data;whiteSpace=wrap;rotation=-90;" parent="pV8ytbCQAY_xURVzbd8B-9" vertex="1">
          <mxGeometry x="42.5" y="332" width="35" height="38" as="geometry" />
        </mxCell>
        <mxCell id="nshthl2HDihLxkNzMUow-176" value="" style="strokeWidth=1;html=1;shape=mxgraph.flowchart.direct_data;whiteSpace=wrap;rotation=-90;" parent="pV8ytbCQAY_xURVzbd8B-9" vertex="1">
          <mxGeometry x="82.5" y="332" width="35" height="38" as="geometry" />
        </mxCell>
        <mxCell id="nshthl2HDihLxkNzMUow-177" value="" style="strokeWidth=1;html=1;shape=mxgraph.flowchart.direct_data;whiteSpace=wrap;rotation=-90;" parent="pV8ytbCQAY_xURVzbd8B-9" vertex="1">
          <mxGeometry x="122.5" y="332" width="35" height="38" as="geometry" />
        </mxCell>
        <mxCell id="nshthl2HDihLxkNzMUow-178" value="" style="strokeWidth=1;html=1;shape=mxgraph.flowchart.direct_data;whiteSpace=wrap;rotation=-90;" parent="pV8ytbCQAY_xURVzbd8B-9" vertex="1">
          <mxGeometry x="162.5" y="332" width="35" height="38" as="geometry" />
        </mxCell>
        <mxCell id="nshthl2HDihLxkNzMUow-189" value="" style="strokeWidth=1;html=1;shape=mxgraph.flowchart.direct_data;whiteSpace=wrap;rotation=-90;movable=1;resizable=1;rotatable=1;deletable=1;editable=1;locked=0;connectable=1;" parent="pV8ytbCQAY_xURVzbd8B-9" vertex="1">
          <mxGeometry x="2.5" y="370" width="35" height="38" as="geometry" />
        </mxCell>
        <mxCell id="nshthl2HDihLxkNzMUow-190" value="" style="strokeWidth=1;html=1;shape=mxgraph.flowchart.direct_data;whiteSpace=wrap;rotation=-90;movable=1;resizable=1;rotatable=1;deletable=1;editable=1;locked=0;connectable=1;" parent="pV8ytbCQAY_xURVzbd8B-9" vertex="1">
          <mxGeometry x="42.5" y="370" width="35" height="38" as="geometry" />
        </mxCell>
        <mxCell id="nshthl2HDihLxkNzMUow-191" value="" style="strokeWidth=1;html=1;shape=mxgraph.flowchart.direct_data;whiteSpace=wrap;rotation=-90;movable=1;resizable=1;rotatable=1;deletable=1;editable=1;locked=0;connectable=1;" parent="pV8ytbCQAY_xURVzbd8B-9" vertex="1">
          <mxGeometry x="82.5" y="370" width="35" height="38" as="geometry" />
        </mxCell>
        <mxCell id="nshthl2HDihLxkNzMUow-192" value="" style="strokeWidth=1;html=1;shape=mxgraph.flowchart.direct_data;whiteSpace=wrap;rotation=-90;movable=1;resizable=1;rotatable=1;deletable=1;editable=1;locked=0;connectable=1;" parent="pV8ytbCQAY_xURVzbd8B-9" vertex="1">
          <mxGeometry x="122.5" y="370" width="35" height="38" as="geometry" />
        </mxCell>
        <mxCell id="nshthl2HDihLxkNzMUow-193" value="" style="strokeWidth=1;html=1;shape=mxgraph.flowchart.direct_data;whiteSpace=wrap;rotation=-90;movable=1;resizable=1;rotatable=1;deletable=1;editable=1;locked=0;connectable=1;" parent="pV8ytbCQAY_xURVzbd8B-9" vertex="1">
          <mxGeometry x="162.5" y="370" width="35" height="38" as="geometry" />
        </mxCell>
        <mxCell id="nshthl2HDihLxkNzMUow-200" value="" style="strokeWidth=1;html=1;shape=mxgraph.flowchart.direct_data;whiteSpace=wrap;rotation=-90;" parent="pV8ytbCQAY_xURVzbd8B-9" vertex="1">
          <mxGeometry x="2.5" y="446" width="35" height="38" as="geometry" />
        </mxCell>
        <mxCell id="nshthl2HDihLxkNzMUow-201" value="" style="strokeWidth=1;html=1;shape=mxgraph.flowchart.direct_data;whiteSpace=wrap;rotation=-90;" parent="pV8ytbCQAY_xURVzbd8B-9" vertex="1">
          <mxGeometry x="42.5" y="446" width="35" height="38" as="geometry" />
        </mxCell>
        <mxCell id="nshthl2HDihLxkNzMUow-202" value="" style="strokeWidth=1;html=1;shape=mxgraph.flowchart.direct_data;whiteSpace=wrap;rotation=-90;" parent="pV8ytbCQAY_xURVzbd8B-9" vertex="1">
          <mxGeometry x="82.5" y="446.5" width="35" height="38" as="geometry" />
        </mxCell>
        <mxCell id="nshthl2HDihLxkNzMUow-203" value="" style="strokeWidth=1;html=1;shape=mxgraph.flowchart.direct_data;whiteSpace=wrap;rotation=-90;" parent="pV8ytbCQAY_xURVzbd8B-9" vertex="1">
          <mxGeometry x="122.5" y="446" width="35" height="38" as="geometry" />
        </mxCell>
        <mxCell id="nshthl2HDihLxkNzMUow-204" value="" style="strokeWidth=1;html=1;shape=mxgraph.flowchart.direct_data;whiteSpace=wrap;rotation=-90;" parent="pV8ytbCQAY_xURVzbd8B-9" vertex="1">
          <mxGeometry x="162.5" y="446" width="35" height="38" as="geometry" />
        </mxCell>
        <mxCell id="nshthl2HDihLxkNzMUow-211" value="" style="strokeWidth=1;html=1;shape=mxgraph.flowchart.direct_data;whiteSpace=wrap;rotation=-90;" parent="pV8ytbCQAY_xURVzbd8B-9" vertex="1">
          <mxGeometry x="2.5" y="408" width="35" height="38" as="geometry" />
        </mxCell>
        <mxCell id="nshthl2HDihLxkNzMUow-212" value="" style="strokeWidth=1;html=1;shape=mxgraph.flowchart.direct_data;whiteSpace=wrap;rotation=-90;" parent="pV8ytbCQAY_xURVzbd8B-9" vertex="1">
          <mxGeometry x="42.5" y="408" width="35" height="38" as="geometry" />
        </mxCell>
        <mxCell id="nshthl2HDihLxkNzMUow-213" value="" style="strokeWidth=1;html=1;shape=mxgraph.flowchart.direct_data;whiteSpace=wrap;rotation=-90;" parent="pV8ytbCQAY_xURVzbd8B-9" vertex="1">
          <mxGeometry x="82.5" y="408.5" width="35" height="38" as="geometry" />
        </mxCell>
        <mxCell id="nshthl2HDihLxkNzMUow-214" value="" style="strokeWidth=1;html=1;shape=mxgraph.flowchart.direct_data;whiteSpace=wrap;rotation=-90;" parent="pV8ytbCQAY_xURVzbd8B-9" vertex="1">
          <mxGeometry x="122.5" y="408" width="35" height="38" as="geometry" />
        </mxCell>
        <mxCell id="nshthl2HDihLxkNzMUow-215" value="" style="strokeWidth=1;html=1;shape=mxgraph.flowchart.direct_data;whiteSpace=wrap;rotation=-90;" parent="pV8ytbCQAY_xURVzbd8B-9" vertex="1">
          <mxGeometry x="162.5" y="408" width="35" height="38" as="geometry" />
        </mxCell>
        <mxCell id="nshthl2HDihLxkNzMUow-210" value="Parallel Group 24" style="rounded=0;whiteSpace=wrap;html=1;strokeWidth=0;" parent="pV8ytbCQAY_xURVzbd8B-9" vertex="1">
          <mxGeometry x="50" y="39" width="100" height="20" as="geometry" />
        </mxCell>
        <mxCell id="nshthl2HDihLxkNzMUow-216" value="Parallel Group 23" style="rounded=0;whiteSpace=wrap;html=1;strokeWidth=0;" parent="pV8ytbCQAY_xURVzbd8B-9" vertex="1">
          <mxGeometry x="50" y="77" width="100" height="20" as="geometry" />
        </mxCell>
        <mxCell id="nshthl2HDihLxkNzMUow-217" value="Parallel Group 22" style="rounded=0;whiteSpace=wrap;html=1;strokeWidth=0;" parent="pV8ytbCQAY_xURVzbd8B-9" vertex="1">
          <mxGeometry x="50" y="115" width="100" height="20" as="geometry" />
        </mxCell>
        <mxCell id="nshthl2HDihLxkNzMUow-218" value="Parallel Group 21" style="rounded=0;whiteSpace=wrap;html=1;strokeWidth=0;" parent="pV8ytbCQAY_xURVzbd8B-9" vertex="1">
          <mxGeometry x="50" y="153" width="100" height="20" as="geometry" />
        </mxCell>
        <mxCell id="nshthl2HDihLxkNzMUow-219" value="Parallel Group 20" style="rounded=0;whiteSpace=wrap;html=1;strokeWidth=0;" parent="pV8ytbCQAY_xURVzbd8B-9" vertex="1">
          <mxGeometry x="50" y="191" width="100" height="20" as="geometry" />
        </mxCell>
        <mxCell id="nshthl2HDihLxkNzMUow-220" value="Parallel Group 19" style="rounded=0;whiteSpace=wrap;html=1;strokeWidth=0;" parent="pV8ytbCQAY_xURVzbd8B-9" vertex="1">
          <mxGeometry x="50" y="229" width="100" height="20" as="geometry" />
        </mxCell>
        <mxCell id="nshthl2HDihLxkNzMUow-221" value="Parallel Group 18" style="rounded=0;whiteSpace=wrap;html=1;strokeWidth=0;" parent="pV8ytbCQAY_xURVzbd8B-9" vertex="1">
          <mxGeometry x="50" y="267" width="100" height="20" as="geometry" />
        </mxCell>
        <mxCell id="nshthl2HDihLxkNzMUow-222" value="Parallel Group 17" style="rounded=0;whiteSpace=wrap;html=1;strokeWidth=0;" parent="pV8ytbCQAY_xURVzbd8B-9" vertex="1">
          <mxGeometry x="50" y="305" width="100" height="20" as="geometry" />
        </mxCell>
        <mxCell id="nshthl2HDihLxkNzMUow-223" value="Parallel Group 16" style="rounded=0;whiteSpace=wrap;html=1;strokeWidth=0;" parent="pV8ytbCQAY_xURVzbd8B-9" vertex="1">
          <mxGeometry x="50" y="343" width="100" height="20" as="geometry" />
        </mxCell>
        <mxCell id="nshthl2HDihLxkNzMUow-224" value="Parallel Group 15" style="rounded=0;whiteSpace=wrap;html=1;strokeWidth=0;" parent="pV8ytbCQAY_xURVzbd8B-9" vertex="1">
          <mxGeometry x="50" y="381" width="100" height="20" as="geometry" />
        </mxCell>
        <mxCell id="nshthl2HDihLxkNzMUow-225" value="Parallel Group 14" style="rounded=0;whiteSpace=wrap;html=1;strokeWidth=0;" parent="pV8ytbCQAY_xURVzbd8B-9" vertex="1">
          <mxGeometry x="50" y="419.5" width="100" height="20" as="geometry" />
        </mxCell>
        <mxCell id="nshthl2HDihLxkNzMUow-226" value="Parallel Group 13" style="rounded=0;whiteSpace=wrap;html=1;strokeWidth=0;" parent="pV8ytbCQAY_xURVzbd8B-9" vertex="1">
          <mxGeometry x="50" y="457.5" width="100" height="20" as="geometry" />
        </mxCell>
        <mxCell id="nshthl2HDihLxkNzMUow-232" style="edgeStyle=orthogonalEdgeStyle;rounded=0;orthogonalLoop=1;jettySize=auto;html=1;exitX=0.08;exitY=1;exitDx=0;exitDy=0;exitPerimeter=0;entryX=0.25;entryY=0;entryDx=0;entryDy=0;strokeWidth=2;endArrow=block;endFill=1;" parent="pV8ytbCQAY_xURVzbd8B-3" source="nshthl2HDihLxkNzMUow-204" target="nshthl2HDihLxkNzMUow-230" edge="1">
          <mxGeometry relative="1" as="geometry">
            <Array as="points">
              <mxPoint x="240" y="490" />
              <mxPoint x="240" y="50" />
              <mxPoint x="763" y="50" />
            </Array>
          </mxGeometry>
        </mxCell>
        <mxCell id="nshthl2HDihLxkNzMUow-233" style="edgeStyle=orthogonalEdgeStyle;rounded=0;orthogonalLoop=1;jettySize=auto;html=1;exitX=0.91;exitY=1;exitDx=0;exitDy=0;exitPerimeter=0;entryX=0.5;entryY=0;entryDx=0;entryDy=0;strokeWidth=2;endArrow=block;startFill=0;endFill=1;fillColor=#f8cecc;strokeColor=#FF0000;" parent="pV8ytbCQAY_xURVzbd8B-3" source="nshthl2HDihLxkNzMUow-133" target="nshthl2HDihLxkNzMUow-230" edge="1">
          <mxGeometry relative="1" as="geometry">
            <Array as="points">
              <mxPoint x="785" y="43" />
            </Array>
          </mxGeometry>
        </mxCell>
        <mxCell id="iPEDdxDTvJuRu2gTz-zR-8" style="edgeStyle=orthogonalEdgeStyle;rounded=0;orthogonalLoop=1;jettySize=auto;html=1;exitX=0.91;exitY=1;exitDx=0;exitDy=0;exitPerimeter=0;strokeColor=#00CC00;" edge="1" parent="pV8ytbCQAY_xURVzbd8B-3" source="nshthl2HDihLxkNzMUow-148">
          <mxGeometry relative="1" as="geometry">
            <mxPoint x="570" y="80" as="targetPoint" />
            <Array as="points">
              <mxPoint x="280" y="119" />
              <mxPoint x="280" y="80" />
              <mxPoint x="570" y="80" />
            </Array>
          </mxGeometry>
        </mxCell>
        <mxCell id="iPEDdxDTvJuRu2gTz-zR-9" style="edgeStyle=orthogonalEdgeStyle;rounded=0;orthogonalLoop=1;jettySize=auto;html=1;exitX=0.91;exitY=1;exitDx=0;exitDy=0;exitPerimeter=0;strokeColor=#00CC00;" edge="1" parent="pV8ytbCQAY_xURVzbd8B-3" source="nshthl2HDihLxkNzMUow-153">
          <mxGeometry relative="1" as="geometry">
            <mxPoint x="570" y="80" as="targetPoint" />
            <Array as="points">
              <mxPoint x="280" y="157" />
              <mxPoint x="280" y="80" />
              <mxPoint x="570" y="80" />
            </Array>
          </mxGeometry>
        </mxCell>
        <mxCell id="iPEDdxDTvJuRu2gTz-zR-10" style="edgeStyle=orthogonalEdgeStyle;rounded=0;orthogonalLoop=1;jettySize=auto;html=1;exitX=0.91;exitY=1;exitDx=0;exitDy=0;exitPerimeter=0;strokeColor=#00CC00;" edge="1" parent="pV8ytbCQAY_xURVzbd8B-3" source="nshthl2HDihLxkNzMUow-158">
          <mxGeometry relative="1" as="geometry">
            <mxPoint x="570" y="80" as="targetPoint" />
            <Array as="points">
              <mxPoint x="280" y="195" />
              <mxPoint x="280" y="80" />
              <mxPoint x="570" y="80" />
            </Array>
          </mxGeometry>
        </mxCell>
        <mxCell id="iPEDdxDTvJuRu2gTz-zR-11" style="edgeStyle=orthogonalEdgeStyle;rounded=0;orthogonalLoop=1;jettySize=auto;html=1;exitX=0.91;exitY=1;exitDx=0;exitDy=0;exitPerimeter=0;strokeColor=#00CC00;" edge="1" parent="pV8ytbCQAY_xURVzbd8B-3" source="nshthl2HDihLxkNzMUow-163">
          <mxGeometry relative="1" as="geometry">
            <mxPoint x="570" y="80" as="targetPoint" />
            <Array as="points">
              <mxPoint x="280" y="233" />
              <mxPoint x="280" y="80" />
              <mxPoint x="570" y="80" />
            </Array>
          </mxGeometry>
        </mxCell>
        <mxCell id="iPEDdxDTvJuRu2gTz-zR-12" style="edgeStyle=orthogonalEdgeStyle;rounded=0;orthogonalLoop=1;jettySize=auto;html=1;exitX=0.91;exitY=1;exitDx=0;exitDy=0;exitPerimeter=0;strokeColor=#00CC00;" edge="1" parent="pV8ytbCQAY_xURVzbd8B-3" source="nshthl2HDihLxkNzMUow-168" target="nshthl2HDihLxkNzMUow-228">
          <mxGeometry relative="1" as="geometry">
            <Array as="points">
              <mxPoint x="280" y="271" />
              <mxPoint x="280" y="80" />
            </Array>
          </mxGeometry>
        </mxCell>
        <mxCell id="iPEDdxDTvJuRu2gTz-zR-13" style="edgeStyle=orthogonalEdgeStyle;rounded=0;orthogonalLoop=1;jettySize=auto;html=1;exitX=0.91;exitY=1;exitDx=0;exitDy=0;exitPerimeter=0;strokeColor=#00CC00;" edge="1" parent="pV8ytbCQAY_xURVzbd8B-3" source="nshthl2HDihLxkNzMUow-173" target="nshthl2HDihLxkNzMUow-228">
          <mxGeometry relative="1" as="geometry">
            <Array as="points">
              <mxPoint x="280" y="309" />
              <mxPoint x="280" y="80" />
            </Array>
          </mxGeometry>
        </mxCell>
        <mxCell id="iPEDdxDTvJuRu2gTz-zR-14" style="edgeStyle=orthogonalEdgeStyle;rounded=0;orthogonalLoop=1;jettySize=auto;html=1;exitX=0.91;exitY=1;exitDx=0;exitDy=0;exitPerimeter=0;strokeColor=#00CC00;" edge="1" parent="pV8ytbCQAY_xURVzbd8B-3" source="nshthl2HDihLxkNzMUow-178" target="nshthl2HDihLxkNzMUow-228">
          <mxGeometry relative="1" as="geometry">
            <Array as="points">
              <mxPoint x="280" y="347" />
              <mxPoint x="280" y="80" />
            </Array>
          </mxGeometry>
        </mxCell>
        <mxCell id="iPEDdxDTvJuRu2gTz-zR-15" style="edgeStyle=orthogonalEdgeStyle;rounded=0;orthogonalLoop=1;jettySize=auto;html=1;exitX=0.91;exitY=1;exitDx=0;exitDy=0;exitPerimeter=0;strokeColor=#00CC00;" edge="1" parent="pV8ytbCQAY_xURVzbd8B-3" source="nshthl2HDihLxkNzMUow-193">
          <mxGeometry relative="1" as="geometry">
            <mxPoint x="570" y="80" as="targetPoint" />
            <Array as="points">
              <mxPoint x="280" y="385" />
              <mxPoint x="280" y="80" />
              <mxPoint x="570" y="80" />
            </Array>
          </mxGeometry>
        </mxCell>
        <mxCell id="iPEDdxDTvJuRu2gTz-zR-16" style="edgeStyle=orthogonalEdgeStyle;rounded=0;orthogonalLoop=1;jettySize=auto;html=1;exitX=0.91;exitY=1;exitDx=0;exitDy=0;exitPerimeter=0;strokeColor=#00CC00;" edge="1" parent="pV8ytbCQAY_xURVzbd8B-3" source="nshthl2HDihLxkNzMUow-215">
          <mxGeometry relative="1" as="geometry">
            <mxPoint x="570" y="80" as="targetPoint" />
            <Array as="points">
              <mxPoint x="280" y="423" />
              <mxPoint x="280" y="80" />
              <mxPoint x="570" y="80" />
            </Array>
          </mxGeometry>
        </mxCell>
        <mxCell id="iPEDdxDTvJuRu2gTz-zR-18" style="edgeStyle=orthogonalEdgeStyle;rounded=0;orthogonalLoop=1;jettySize=auto;html=1;exitX=0.91;exitY=1;exitDx=0;exitDy=0;exitPerimeter=0;strokeWidth=1;strokeColor=#00CC00;" edge="1" parent="pV8ytbCQAY_xURVzbd8B-3">
          <mxGeometry relative="1" as="geometry">
            <mxPoint x="570" y="80" as="targetPoint" />
            <mxPoint x="229" y="459.65" as="sourcePoint" />
            <Array as="points">
              <mxPoint x="280" y="460" />
              <mxPoint x="280" y="80" />
            </Array>
          </mxGeometry>
        </mxCell>
        <mxCell id="iPEDdxDTvJuRu2gTz-zR-19" value="" style="endArrow=block;html=1;rounded=0;entryX=0;entryY=0.5;entryDx=0;entryDy=0;strokeWidth=3;strokeColor=#00CC00;jumpSize=6;endFill=1;" edge="1" parent="pV8ytbCQAY_xURVzbd8B-3">
          <mxGeometry width="50" height="50" relative="1" as="geometry">
            <mxPoint x="230" y="80" as="sourcePoint" />
            <mxPoint x="570" y="80" as="targetPoint" />
          </mxGeometry>
        </mxCell>
        <mxCell id="iPEDdxDTvJuRu2gTz-zR-20" value="Voltage Sense Wires for Cells [13, 23]" style="edgeLabel;html=1;align=center;verticalAlign=middle;resizable=0;points=[];" vertex="1" connectable="0" parent="iPEDdxDTvJuRu2gTz-zR-19">
          <mxGeometry x="-0.0546" relative="1" as="geometry">
            <mxPoint x="48" as="offset" />
          </mxGeometry>
        </mxCell>
        <mxCell id="iPEDdxDTvJuRu2gTz-zR-61" value="Cell Temperature Alarm" style="swimlane;whiteSpace=wrap;html=1;" vertex="1" parent="pV8ytbCQAY_xURVzbd8B-3">
          <mxGeometry x="320" y="390" width="170" height="140" as="geometry">
            <mxRectangle x="320" y="350" width="180" height="30" as="alternateBounds" />
          </mxGeometry>
        </mxCell>
        <mxCell id="pV8ytbCQAY_xURVzbd8B-4" value="&amp;nbsp;Lower&amp;nbsp;&lt;span style=&quot;background-color: transparent; color: light-dark(rgb(0, 0, 0), rgb(255, 255, 255));&quot;&gt;BMS Link Area [S1 to S12]&lt;/span&gt;" style="swimlane;startSize=20;horizontal=0;html=1;" parent="pV8ytbCQAY_xURVzbd8B-2" vertex="1">
          <mxGeometry y="560" width="850" height="540" as="geometry" />
        </mxCell>
        <mxCell id="iPEDdxDTvJuRu2gTz-zR-3" style="edgeStyle=orthogonalEdgeStyle;rounded=0;orthogonalLoop=1;jettySize=auto;html=1;exitX=0;exitY=0.5;exitDx=0;exitDy=0;fontColor=#000000;strokeColor=#FF0000;endArrow=blockThin;endFill=1;" edge="1" parent="1">
          <mxGeometry relative="1" as="geometry">
            <mxPoint x="690" y="101" as="targetPoint" />
            <mxPoint x="740" y="101" as="sourcePoint" />
          </mxGeometry>
        </mxCell>
        <mxCell id="iPEDdxDTvJuRu2gTz-zR-5" value="&lt;font style=&quot;font-size: 8px;&quot;&gt;5V Power&lt;/font&gt;" style="edgeLabel;html=1;align=center;verticalAlign=middle;resizable=0;points=[];" vertex="1" connectable="0" parent="iPEDdxDTvJuRu2gTz-zR-3">
          <mxGeometry x="-0.0459" relative="1" as="geometry">
            <mxPoint x="2" as="offset" />
          </mxGeometry>
        </mxCell>
        <mxCell id="iPEDdxDTvJuRu2gTz-zR-175" value="Cell Temperature Alarm" style="swimlane;whiteSpace=wrap;html=1;" vertex="1" parent="1">
          <mxGeometry x="495" y="410" width="170" height="140" as="geometry">
            <mxRectangle x="320" y="350" width="180" height="30" as="alternateBounds" />
          </mxGeometry>
        </mxCell>
        <mxCell id="iPEDdxDTvJuRu2gTz-zR-176" value="Cell Temperature Alarm" style="swimlane;whiteSpace=wrap;html=1;" vertex="1" parent="1">
          <mxGeometry x="670" y="410" width="170" height="140" as="geometry">
            <mxRectangle x="320" y="350" width="180" height="30" as="alternateBounds" />
          </mxGeometry>
        </mxCell>
        <mxCell id="iPEDdxDTvJuRu2gTz-zR-177" style="edgeStyle=orthogonalEdgeStyle;rounded=0;orthogonalLoop=1;jettySize=auto;html=1;exitX=0.75;exitY=1;exitDx=0;exitDy=0;entryX=0.75;entryY=0;entryDx=0;entryDy=0;endArrow=blockThin;endFill=1;" edge="1" parent="1" source="nshthl2HDihLxkNzMUow-230" target="iPEDdxDTvJuRu2gTz-zR-176">
          <mxGeometry relative="1" as="geometry">
            <Array as="points">
              <mxPoint x="808" y="400" />
              <mxPoint x="798" y="400" />
            </Array>
          </mxGeometry>
        </mxCell>
        <mxCell id="iPEDdxDTvJuRu2gTz-zR-178" style="edgeStyle=orthogonalEdgeStyle;rounded=0;orthogonalLoop=1;jettySize=auto;html=1;exitX=0.75;exitY=1;exitDx=0;exitDy=0;entryX=0.75;entryY=0;entryDx=0;entryDy=0;" edge="1" parent="1" source="nshthl2HDihLxkNzMUow-230" target="iPEDdxDTvJuRu2gTz-zR-175">
          <mxGeometry relative="1" as="geometry">
            <Array as="points">
              <mxPoint x="807" y="400" />
              <mxPoint x="623" y="400" />
            </Array>
          </mxGeometry>
        </mxCell>
      </root>
    </mxGraphModel>
  </diagram>
</mxfile>
